<svg xml:space="preserve" style="max-height: 500px" viewBox="54.8 172.8 424 164" y="0px" x="0px" xmlns:xlink="http://www.w3.org/1999/xlink" xmlns="http://www.w3.org/2000/svg" id="Layer_1" version="1.1" width="424" height="164">
<style type="text/css">
	.st0{fill:#DBE4F1;}
	.st1{clip-path:url(#SVGID_00000073710367112431042840000000491436744582677890_);}
	.st2{fill:#0048D1;}
	.st3{fill:#FFF0B9;}
	.st4{fill:#FF6E70;}
	.st5{fill:#FFFFFF;}
</style>
<path d="M226.2,239.2c-5.8-10.7-15.9-18.5-26.6-23.9c-11.7-5.9-24.9-10.6-38-11.6c-11.3-0.9-23.3,1.8-31.9,9.6&#xA;&#9;c-5.8,5.4-10.4,14.3-13.6,21.4c-2.6,5.9-4.8,12.1-5,18.6c-0.5,12.7,6.7,24.5,12.8,35.2c5.8,10.2,12.9,19.6,24.4,23.6&#xA;&#9;c11,3.9,23.6,3.4,34.9,1c22.2-4.8,41.9-20,46.9-42.9C232.4,259.8,231.4,248.6,226.2,239.2L226.2,239.2z" class="st0"/>
<g>
	<defs>
		<path d="M116.3,278.6c8.4-5.3,14.2-13.9,18-23c4.1-9.8,7.3-20.9,7.4-31.5c0.1-9.3-2.7-18.9-9.6-25.4&#xA;&#9;&#9;&#9;c-4.7-4.4-12.2-7.7-18.1-9.9c-4.9-1.8-10.1-3.2-15.4-3.1C88.2,186,79,192.5,70.6,198c-8,5.3-15.2,11.6-17.9,21.1&#xA;&#9;&#9;&#9;c-2.5,9.1-1.5,19.4,1.1,28.4c5.1,17.8,18.6,33,37.5,35.8C99.9,284.8,108.9,283.3,116.3,278.6z" id="SVGID_1_"/>
	</defs>
	<clipPath id="SVGID_00000173855825698259389360000013831154751028481469_">
		
	</clipPath>
	<g style="clip-path:url(#SVGID_00000173855825698259389360000013831154751028481469_);">
		<g>
			<path d="M61.1,281.6c23.7-14,46.2-27.2,68.6-40.5c3.3-2,6.7-3.6,9.9-6c15.1-10.7,25.6-12.5,36.6-15.6&#xA;&#9;&#9;&#9;&#9;c2.6-0.7,3.4,1.1,5.6,2c-13,7.6-24.5,14.4-35.9,21c-22.2,12.8-44.4,25.4-66.6,38C65.1,288.7,65.2,288.6,61.1,281.6L61.1,281.6z" class="st0"/>
			<path d="M69.2,292.4c11.2-6.5,20.7-12.2,30.1-17.7c24.7-14.2,49.4-28.4,74.1-42.3c3.8-2.1,10-7.6,10.2-3.7&#xA;&#9;&#9;&#9;&#9;c0.1,2.1-9,12.1-13.5,15c-6.1,3.8-12.2,7.5-18.3,11.1c-19.6,11.8-39.1,23.3-58.7,35.3c-8.1,5-12,4.5-15.8,3.8&#xA;&#9;&#9;&#9;&#9;C74.8,293.6,72.4,293.1,69.2,292.4L69.2,292.4z" class="st0"/>
			<path d="M136.9,213.9c-6.9,4.4-13.7,6.8-20.3,10.7c-7.6,4.5-15.5,10-23.3,15c-9.9,6.4-19.9,12.9-29.8,19.1&#xA;&#9;&#9;&#9;&#9;c-5.8,3.6-8.2,5.6-10.2,1.1c-1-2.2-2.2-4.3,0.5-6.5c5-2.9,12.5-8.4,17-11.3c13-8.3,26.1-16.9,39.1-25.4c4.7-3.1,9.4-6,14.1-9&#xA;&#9;&#9;&#9;&#9;c9.8-6.3,13-5.1,13.1-0.2c0,1.1,0.4,2,0.8,3.1C138.2,211.2,138.5,212.9,136.9,213.9L136.9,213.9z" class="st0"/>
			<path d="M144.5,225.6c-9.4,5.4-18.3,10.6-27.4,15.9c-14.3,8.5-28.6,16.9-42.9,25.8c-17,10.5-17,10.8-17.3,0.3&#xA;&#9;&#9;&#9;&#9;c5.5-3,10.7-5.3,15.9-8.7c8.3-5.3,16.8-11.7,25.1-17c7.8-5,15.6-9.2,23.4-13.8c0.6-0.3,23.8-11.9,26.4-6.7&#xA;&#9;&#9;&#9;&#9;C148.2,222.6,146.4,224.4,144.5,225.6L144.5,225.6z" class="st0"/>
			<path d="M132.9,196.8c-25.5,16.3-52.8,33.6-80.1,51.1c-10,1-9.1-3.8-6.2-9.4c0.2-0.5,8.7-5.8,19.9-12.6&#xA;&#9;&#9;&#9;&#9;c18.1-11,43.4-26.1,53.8-31.6C131.6,188.2,132.3,189,132.9,196.8L132.9,196.8z" class="st0"/>
			<path d="M118.2,191.1c-2.5,2.1-40.1,23.7-57.8,33c-6.6,3.5-13,9.6-14.5,9.2c-1.9-0.6-5.3-5.1-1.5-8.4&#xA;&#9;&#9;&#9;&#9;c7.6-6.7,26.9-17.1,34.9-22.2c7.8-4.9,31.9-18.1,36.6-17.7C119.1,185.3,121.6,188.2,118.2,191.1L118.2,191.1z" class="st0"/>
			<path d="M36,212.6c2.5-2.1,40.1-23.7,57.8-33c6.6-3.5,12.9-9.6,14.4-9.2c1.9,0.6,5.3,5.1,1.6,8.4&#xA;&#9;&#9;&#9;&#9;C102.2,185.6,83,196,75,201c-7.8,4.9-31.9,18.1-36.6,17.7C35.1,218.5,32.6,215.6,36,212.6z" class="st0"/>
			<path d="M168.5,249.1c-18.4,21.1-58,44.8-73.6,44.1C119.4,278.5,144,263.8,168.5,249.1L168.5,249.1z" class="st0"/>
		</g>
	</g>
</g>
<g>
	<path d="M156.2,237c0.3,0.6,0.3,1.2,0,1.8l-24.5,47.9l-0.5,1v0c-1,1.7-2.4,3.1-4.1,4.1c-5.4,3.1-12.3,1.3-15.4-4.1&#xA;&#9;&#9;c-0.1-0.1-0.1-0.2-0.2-0.4L84,235.3c-1.2-2.4,0.5-5.2,3.2-5.2h62.1c2.1,0,4,1.2,5,3L156.2,237L156.2,237L156.2,237z" class="st2"/>
	<path d="M124.1,214.8c3.1,6.1,0.6,11.1-5.6,11.1s-13.6-5-16.6-11.1c-3.1-6.1,1.2-9.2,7.3-9.2S121,208.7,124.1,214.8z" class="st2"/>
	<path d="M150.2,246.8c0.2,0.5,0.2,1,0,1.5l-9.5,39.4l-0.4,0.8v0c-0.8,1.4-1.9,2.5-3.4,3.4c-4.4,2.6-10.1,1-12.7-3.4&#xA;&#9;&#9;c-0.1-0.1-0.1-0.2-0.2-0.3l-22-42.4c-1-1.9,0.4-4.3,2.6-4.3l39.7-0.5c1.7,0,3.3,1,4.1,2.5L150.2,246.8L150.2,246.8L150.2,246.8z" class="st3"/>
	<path d="M145.6,254.8c0.1,0.3,0.1,0.6,0,0.9l-3.9,22.5l-0.2,0.5l0,0c-0.4,0.8-1.1,1.5-1.9,2c-2.5,1.5-5.8,0.6-7.2-1.9&#xA;&#9;&#9;c0-0.1-0.1-0.1-0.1-0.2l-12.5-24c-0.6-1.1,0.2-2.5,1.5-2.5l21.1-0.5c1,0,1.9,0.6,2.4,1.4L145.6,254.8L145.6,254.8L145.6,254.8z" class="st4"/>
	<path d="M236.4,212.9L200,283.7c-3.1,6-9.2,9.7-15.9,9.7h-62.8c2.9,0,6-2.6,8-6.7c0,0,0,0,0,0l0.3-0.6l3.1-6l36.4-71&#xA;&#9;&#9;c2.6-5.1,7.9-8.3,13.6-8.2l9.5,0c1.3,0,2.1,1.4,1.6,2.6l-2.7,5.8c-3.8,7.6-1,13.8,6.2,13.8c8,0,14.9-3.6,20-13.8&#xA;&#9;&#9;c0.9-1.8,3.4-7.3,3.4-7.3c0.3-0.6,0.9-1,1.6-1l7.1,0C240.7,201,237.6,210.6,236.4,212.9L236.4,212.9L236.4,212.9z" class="st2"/>
	<g>
		<polygon points="190.8,237.4 193.4,237.4 190.6,239.1 190.4,241.9 188.9,240.2 186.1,241.9 188,239.1 186.5,237.4 &#xA;&#9;&#9;&#9;189.2,237.4 191,234.7 190.8,237.4" class="st3"/>
		<polygon points="177.1,272.7 179.9,272.7 177,274.3 176.9,277 175.3,275.4 172.4,277 174.3,274.3 172.8,272.7 &#xA;&#9;&#9;&#9;175.5,272.7 177.3,270.1 177.1,272.7" class="st3"/>
		<polygon points="186.7,270.3 189.4,270.3 186.6,272 186.5,274.6 184.9,273 182.1,274.6 183.9,272 182.3,270.3 &#xA;&#9;&#9;&#9;185.1,270.3 186.9,267.8 186.7,270.3" class="st3"/>
		<polygon points="198.3,239.7 200.9,239.7 198.2,241.4 198,244 196.5,242.4 193.8,244 195.6,241.4 194.1,239.7 &#xA;&#9;&#9;&#9;196.7,239.7 198.5,237.2 198.3,239.7" class="st3"/>
		<polygon points="202.1,246.2 204.8,246.2 202,247.9 201.9,250.5 200.3,248.9 197.6,250.5 199.4,247.9 197.9,246.2 &#xA;&#9;&#9;&#9;200.5,246.2 202.3,243.6 202.1,246.2" class="st3"/>
		<polygon points="195.5,263.9 198.2,263.9 195.4,265.6 195.3,268.2 193.7,266.6 190.9,268.2 192.8,265.6 191.2,263.9 &#xA;&#9;&#9;&#9;193.9,263.9 195.7,261.4 195.5,263.9" class="st3"/>
		<polygon points="201.2,254.9 203.9,254.9 201.1,256.6 201,259.2 199.4,257.6 196.7,259.2 198.5,256.6 196.9,254.9 &#xA;&#9;&#9;&#9;199.6,254.9 201.4,252.4 201.2,254.9" class="st3"/>
		<polygon points="181.3,239.8 183.9,239.8 181.1,241.4 180.9,244.1 179.4,242.4 176.6,244.1 178.5,241.4 177.1,239.8 &#xA;&#9;&#9;&#9;179.7,239.8 181.5,237.2 181.3,239.8" class="st3"/>
		<polygon points="172.6,246.2 175.3,246.2 172.4,247.9 172.2,250.5 170.7,248.9 167.9,250.5 169.8,247.9 168.4,246.2 &#xA;&#9;&#9;&#9;171,246.2 172.9,243.7 172.6,246.2" class="st3"/>
		<polygon points="166.8,255 169.5,255 166.6,256.6 166.4,259.3 164.9,257.6 162.1,259.3 164,256.6 162.5,255 &#xA;&#9;&#9;&#9;165.2,255 167,252.4 166.8,255" class="st3"/>
		<polygon points="165.4,264 168.1,264 165.3,265.6 165.1,268.3 163.5,266.6 160.7,268.3 162.6,265.6 161.1,264 &#xA;&#9;&#9;&#9;163.8,264 165.7,261.4 165.4,264" class="st3"/>
		<polygon points="169.2,270.4 171.9,270.4 169,272 168.9,274.7 167.3,273 164.4,274.7 166.4,272 164.8,270.4 &#xA;&#9;&#9;&#9;167.5,270.4 169.4,267.8 169.2,270.4" class="st3"/>
	</g>
</g>
<g>
	<path d="M302,225.7c-0.2,0-0.3,0-0.4-0.1c-0.1-0.1-0.1-0.2-0.1-0.3v-14.8c0-0.3,0.1-0.4,0.4-0.4h4.7&#xA;&#9;&#9;c1.3,0,2.4,0.2,3.2,0.6c0.8,0.4,1.5,1,2,1.7c0.5,0.7,0.8,1.5,1,2.5c0.2,0.9,0.3,1.9,0.3,3s-0.1,2.1-0.3,3.1c-0.2,0.9-0.5,1.8-1,2.5&#xA;&#9;&#9;c-0.5,0.7-1.1,1.3-2,1.7c-0.8,0.4-1.9,0.6-3.2,0.6L302,225.7L302,225.7z M310.4,218c0-1.1-0.1-2-0.3-2.7c-0.2-0.7-0.5-1.3-0.8-1.8&#xA;&#9;&#9;s-0.8-0.7-1.2-0.9c-0.5-0.2-1-0.3-1.5-0.3h-2.4v11h2.3c0.5,0,1-0.1,1.5-0.2c0.5-0.1,0.9-0.4,1.3-0.8s0.7-0.9,0.9-1.6&#xA;&#9;&#9;C310.3,220,310.4,219.1,310.4,218L310.4,218z" class="st5"/>
	<path d="M318.9,211c0,0.2,0,0.4,0,0.5c0,0.2-0.1,0.3-0.2,0.4c-0.1,0.1-0.2,0.2-0.4,0.3c-0.2,0.1-0.4,0.1-0.7,0.1&#xA;&#9;&#9;c-0.3,0-0.6,0-0.8-0.1c-0.2-0.1-0.3-0.2-0.4-0.3c-0.1-0.1-0.2-0.3-0.2-0.4c0-0.2,0-0.4,0-0.5c0-0.4,0.1-0.7,0.3-0.9&#xA;&#9;&#9;c0.2-0.3,0.6-0.4,1.1-0.4s1,0.1,1.1,0.4C318.8,210.3,318.8,210.6,318.9,211L318.9,211z M318.7,225.2c0,0.1,0,0.2-0.1,0.3&#xA;&#9;&#9;c0,0.1-0.2,0.1-0.3,0.1h-1.7c-0.3,0-0.5-0.1-0.5-0.4v-10.7c0-0.3,0.2-0.4,0.5-0.4h1.7c0.2,0,0.3,0.1,0.3,0.1&#xA;&#9;&#9;c0.1,0.1,0.1,0.2,0.1,0.3V225.2z" class="st5"/>
	<path d="M326.5,213.8c0.8,0,1.5,0.1,2.3,0.2s1.5,0.3,2.1,0.4c0.3,0.1,0.5,0.2,0.5,0.4c0.1,0.2,0.1,0.4,0.1,0.6v10&#xA;&#9;&#9;c0,0.7,0,1.3-0.1,1.9c-0.1,0.6-0.3,1.1-0.6,1.5c-0.3,0.4-0.8,0.8-1.5,1c-0.6,0.2-1.5,0.4-2.6,0.4c-0.6,0-1.3,0-2-0.1&#xA;&#9;&#9;c-0.7-0.1-1.3-0.2-1.8-0.4c-0.2-0.1-0.4-0.2-0.4-0.3c0-0.1,0-0.2,0-0.4l0.2-0.9c0-0.2,0.1-0.3,0.2-0.3c0.1,0,0.3,0,0.5,0&#xA;&#9;&#9;c0.5,0.1,1.1,0.1,1.7,0.2c0.6,0.1,1.1,0.1,1.6,0.1c0.5,0,0.9,0,1.2-0.1c0.3-0.1,0.6-0.2,0.8-0.4c0.2-0.2,0.3-0.4,0.4-0.6&#xA;&#9;&#9;c0.1-0.3,0.1-0.6,0.1-0.9v-0.8c-0.6,0.2-1.1,0.4-1.6,0.4c-0.5,0.1-0.9,0.1-1.3,0.1c-1,0-1.7-0.1-2.3-0.4c-0.6-0.3-1.1-0.7-1.5-1.2&#xA;&#9;&#9;c-0.3-0.5-0.6-1.1-0.7-1.9c-0.1-0.7-0.2-1.5-0.2-2.4c0-0.9,0.1-1.8,0.2-2.5c0.2-0.8,0.4-1.4,0.8-1.9c0.4-0.5,0.9-0.9,1.6-1.2&#xA;&#9;&#9;C324.7,214,325.5,213.8,326.5,213.8L326.5,213.8z M324.1,219.7c0,0.7,0,1.3,0.1,1.8c0.1,0.5,0.2,0.9,0.4,1.2&#xA;&#9;&#9;c0.2,0.3,0.4,0.5,0.7,0.6c0.3,0.1,0.6,0.2,1,0.2c0.3,0,0.7,0,1.2-0.1c0.5-0.1,1-0.2,1.5-0.3v-6.7c-0.4-0.1-0.8-0.1-1.2-0.1&#xA;&#9;&#9;c-0.4-0.1-0.8-0.1-1.2-0.1s-0.7,0-1,0.1s-0.6,0.2-0.8,0.5c-0.2,0.2-0.4,0.6-0.6,1.1C324.2,218.3,324.1,218.9,324.1,219.7&#xA;&#9;&#9;L324.1,219.7z" class="st5"/>
	<path d="M337,211c0,0.2,0,0.4,0,0.5c0,0.2-0.1,0.3-0.2,0.4c-0.1,0.1-0.2,0.2-0.4,0.3c-0.2,0.1-0.4,0.1-0.7,0.1&#xA;&#9;&#9;c-0.3,0-0.6,0-0.8-0.1c-0.2-0.1-0.3-0.2-0.4-0.3c-0.1-0.1-0.2-0.3-0.2-0.4c0-0.2,0-0.4,0-0.5c0-0.4,0.1-0.7,0.3-0.9&#xA;&#9;&#9;c0.2-0.3,0.6-0.4,1.1-0.4s1,0.1,1.1,0.4C336.9,210.3,337,210.6,337,211L337,211z M336.8,225.2c0,0.1,0,0.2-0.1,0.3&#xA;&#9;&#9;c0,0.1-0.2,0.1-0.3,0.1h-1.7c-0.3,0-0.5-0.1-0.5-0.4v-10.7c0-0.3,0.2-0.4,0.5-0.4h1.7c0.2,0,0.3,0.1,0.3,0.1&#xA;&#9;&#9;c0.1,0.1,0.1,0.2,0.1,0.3V225.2z" class="st5"/>
	<path d="M346.9,224.8c0,0.3,0,0.5-0.3,0.6c-0.2,0.1-0.4,0.2-0.7,0.2c-0.3,0.1-0.5,0.1-0.8,0.1&#xA;&#9;&#9;c-0.3,0.1-0.5,0.1-0.8,0.1c-0.2,0-0.5,0-0.6,0c-0.7,0-1.2-0.1-1.6-0.3c-0.4-0.2-0.6-0.5-0.8-0.8s-0.3-0.8-0.4-1.2&#xA;&#9;&#9;c0-0.5-0.1-0.9-0.1-1.4v-5.9h-1.2c-0.2,0-0.3,0-0.4-0.1c-0.1-0.1-0.1-0.2-0.1-0.4v-1.2c0-0.2,0-0.3,0.1-0.4&#xA;&#9;&#9;c0.1-0.1,0.2-0.1,0.4-0.1h1.2v-2.4c0-0.2,0-0.3,0.1-0.4c0.1-0.1,0.2-0.1,0.3-0.2l1.6-0.4c0.3-0.1,0.5,0,0.5,0.3v3.1h2.5&#xA;&#9;&#9;c0.2,0,0.3,0,0.4,0.1c0.1,0.1,0.1,0.2,0.1,0.3v1.2c0,0.2,0,0.3-0.1,0.4c0,0.1-0.2,0.1-0.4,0.1h-2.5v5.9c0,0.3,0,0.6,0.1,0.7&#xA;&#9;&#9;c0,0.2,0.1,0.3,0.2,0.4c0.1,0.1,0.3,0.1,0.5,0.1c0.2,0,0.5,0,0.8,0c0.2,0,0.4,0,0.7,0c0.3,0,0.6,0,0.8-0.1c0.1,0,0.2,0,0.3,0.1&#xA;&#9;&#9;s0.1,0.1,0.1,0.3L346.9,224.8L346.9,224.8z" class="st5"/>
	<path d="M355.2,220.4h-2.9c-0.6,0-1.1,0.1-1.4,0.4c-0.3,0.3-0.5,0.8-0.5,1.6c0,0.5,0.1,0.9,0.3,1.1&#xA;&#9;&#9;c0.2,0.2,0.6,0.3,1.1,0.3c0.2,0,0.5,0,0.8-0.1c0.3-0.1,0.6-0.1,0.9-0.3c0.3-0.1,0.6-0.2,0.9-0.4c0.3-0.1,0.5-0.3,0.8-0.4V220.4&#xA;&#9;&#9;L355.2,220.4z M355.4,224.3c-0.6,0.5-1.3,0.8-2,1.1c-0.7,0.3-1.5,0.4-2.3,0.4c-0.6,0-1.1-0.1-1.6-0.2c-0.4-0.2-0.7-0.4-1-0.7&#xA;&#9;&#9;c-0.2-0.3-0.4-0.6-0.5-1.1c-0.1-0.4-0.1-0.9-0.1-1.4c0-1.4,0.3-2.4,1.1-3c0.7-0.6,1.8-0.9,3.3-0.9h3v-0.6c0-0.4,0-0.6-0.1-0.9&#xA;&#9;&#9;c-0.1-0.2-0.2-0.5-0.4-0.6c-0.2-0.2-0.4-0.3-0.8-0.3s-0.7-0.1-1.2-0.1c-0.2,0-0.4,0-0.7,0c-0.3,0-0.5,0-0.8,0.1&#xA;&#9;&#9;c-0.3,0-0.6,0-0.9,0.1c-0.3,0-0.5,0.1-0.8,0.1c-0.2,0-0.4,0-0.5,0c-0.1,0-0.1-0.1-0.2-0.3l-0.2-0.9c0-0.2,0-0.3,0-0.4&#xA;&#9;&#9;c0.1-0.1,0.2-0.2,0.5-0.3c0.2-0.1,0.5-0.2,0.9-0.2c0.3-0.1,0.7-0.1,1-0.1c0.4-0.1,0.7-0.1,1-0.1c0.4,0,0.7-0.1,1-0.1&#xA;&#9;&#9;c1,0,1.8,0.1,2.4,0.3c0.6,0.2,1.1,0.5,1.4,0.9c0.3,0.4,0.5,0.8,0.6,1.4c0.1,0.5,0.1,1.1,0.1,1.8v4.6c0,0.2,0,0.4,0,0.6&#xA;&#9;&#9;c0,0.1,0.1,0.2,0.1,0.3c0.1,0.1,0.1,0.1,0.3,0.1c0.1,0,0.3,0.1,0.4,0.1c0.2,0,0.3,0.1,0.4,0.1c0.1,0.1,0.1,0.1,0.1,0.3v1&#xA;&#9;&#9;c0,0.3-0.2,0.4-0.6,0.5c-0.2,0-0.4,0.1-0.6,0.1c-0.2,0-0.4,0.1-0.5,0.1c-0.5,0-1-0.1-1.3-0.3C355.8,225.3,355.6,224.9,355.4,224.3&#xA;&#9;&#9;L355.4,224.3L355.4,224.3z" class="st5"/>
	<path d="M363.6,222.7c0,0.4,0.1,0.6,0.2,0.7c0.2,0.1,0.5,0.1,0.9,0.1c0.2,0,0.3,0,0.3,0.1c0.1,0,0.1,0.1,0.1,0.2&#xA;&#9;&#9;l0.1,1.2c0,0.2-0.1,0.3-0.3,0.4c-0.2,0.1-0.5,0.2-0.8,0.2c-0.3,0.1-0.5,0.1-0.8,0.1c-0.9,0-1.5-0.2-1.9-0.6c-0.3-0.4-0.5-1-0.5-1.8&#xA;&#9;&#9;v-13.9c0-0.3,0.1-0.4,0.4-0.4h1.7c0.3,0,0.4,0.1,0.4,0.4L363.6,222.7L363.6,222.7z" class="st5"/>
	<path d="M374.1,210.4c0-0.3,0.1-0.5,0.4-0.5h1.8c0.3,0,0.4,0.2,0.4,0.5v14.8c0,0.3-0.1,0.4-0.4,0.4h-1.8&#xA;&#9;&#9;c-0.3,0-0.4-0.1-0.4-0.4V210.4z" class="st5"/>
	<path d="M389.8,225.2c0,0.1,0,0.2-0.1,0.3c0,0.1-0.2,0.1-0.3,0.1h-1.7c-0.3,0-0.4-0.1-0.4-0.4v-0.8h0c0,0,0,0,0,0&#xA;&#9;&#9;c-0.2,0.1-0.4,0.3-0.7,0.5c-0.3,0.2-0.6,0.3-0.9,0.4c-0.3,0.1-0.7,0.2-1,0.3c-0.3,0.1-0.7,0.1-1,0.1c-0.8,0-1.4-0.1-1.9-0.4&#xA;&#9;&#9;c-0.5-0.3-0.9-0.7-1.2-1.2c-0.3-0.5-0.5-1.1-0.6-1.8c-0.1-0.7-0.2-1.5-0.2-2.4c0-1,0.1-1.8,0.2-2.6c0.1-0.8,0.4-1.4,0.7-2&#xA;&#9;&#9;c0.3-0.5,0.8-0.9,1.4-1.2c0.6-0.3,1.4-0.4,2.3-0.4s1.9,0.2,2.9,0.5h0c0,0,0,0,0,0v-4.9c0-0.2,0-0.3,0.1-0.4&#xA;&#9;&#9;c0.1-0.1,0.2-0.1,0.4-0.1h1.7c0.2,0,0.3,0.1,0.4,0.1c0,0.1,0.1,0.2,0.1,0.3V225.2L389.8,225.2z M387.3,216.5&#xA;&#9;&#9;c-0.5-0.2-1-0.3-1.5-0.3c-0.4-0.1-0.8-0.1-1.2-0.1c-0.4,0-0.8,0.1-1.1,0.2c-0.3,0.1-0.5,0.3-0.7,0.6s-0.3,0.7-0.4,1.2&#xA;&#9;&#9;c-0.1,0.5-0.1,1.1-0.1,1.9s0,1.4,0.1,1.9c0.1,0.5,0.2,0.8,0.4,1.1c0.2,0.2,0.3,0.4,0.6,0.5c0.2,0.1,0.5,0.1,0.8,0.1&#xA;&#9;&#9;c0.2,0,0.5,0,0.8-0.1c0.3-0.1,0.6-0.2,0.9-0.3c0.3-0.1,0.6-0.2,0.8-0.3c0.3-0.1,0.5-0.2,0.6-0.3L387.3,216.5L387.3,216.5z" class="st5"/>
	<path d="M394.8,220.6c0,0.6,0.1,1.1,0.2,1.5c0.1,0.4,0.3,0.7,0.5,0.9c0.2,0.2,0.5,0.4,0.9,0.5s0.8,0.1,1.2,0.1&#xA;&#9;&#9;c0.4,0,0.9,0,1.5-0.1c0.6-0.1,1.1-0.1,1.5-0.2c0.2,0,0.4,0,0.4,0c0.1,0,0.2,0.2,0.2,0.4l0.1,0.8c0,0.2,0,0.3,0,0.4&#xA;&#9;&#9;c0,0.1-0.2,0.2-0.4,0.3c-0.2,0.1-0.5,0.2-0.8,0.3c-0.3,0.1-0.6,0.1-1,0.2s-0.7,0.1-1,0.1c-0.3,0-0.6,0.1-0.9,0.1&#xA;&#9;&#9;c-1.1,0-2-0.2-2.7-0.5s-1.2-0.8-1.5-1.3c-0.4-0.6-0.6-1.2-0.7-1.9c-0.1-0.7-0.2-1.5-0.2-2.2c0-0.6,0-1.2,0.1-1.9&#xA;&#9;&#9;c0.1-0.7,0.3-1.4,0.6-2c0.3-0.6,0.8-1.1,1.5-1.5c0.7-0.4,1.6-0.6,2.7-0.6c1,0,1.9,0.2,2.5,0.5c0.6,0.3,1.2,0.7,1.5,1.2&#xA;&#9;&#9;c0.4,0.5,0.6,1.1,0.7,1.7c0.1,0.6,0.2,1.3,0.2,1.9c0,0.4,0,0.8-0.2,1c-0.2,0.3-0.5,0.4-0.9,0.4L394.8,220.6L394.8,220.6z&#xA;&#9;&#9; M397.1,216c-0.4,0-0.8,0.1-1.1,0.2s-0.5,0.3-0.7,0.6c-0.2,0.2-0.3,0.5-0.4,0.9c-0.1,0.4-0.1,0.7-0.2,1.2h4.6c0-0.4,0-0.7-0.1-1&#xA;&#9;&#9;c-0.1-0.4-0.2-0.6-0.4-0.9c-0.2-0.3-0.4-0.5-0.7-0.6C398,216.1,397.6,216,397.1,216L397.1,216z" class="st5"/>
	<path d="M414.1,225.2c0,0.1,0,0.2-0.1,0.3s-0.2,0.1-0.4,0.1H412c-0.3,0-0.4-0.1-0.4-0.4l0-6.6c0-0.7-0.1-1.2-0.4-1.7&#xA;&#9;&#9;c-0.2-0.4-0.7-0.6-1.3-0.6c-0.2,0-0.5,0-0.8,0.1c-0.3,0.1-0.6,0.2-0.9,0.3c-0.3,0.1-0.6,0.2-0.8,0.4c-0.3,0.1-0.5,0.2-0.6,0.3v7.9&#xA;&#9;&#9;c0,0.3-0.1,0.4-0.4,0.4h-1.7c-0.3,0-0.4-0.1-0.4-0.4v-10.7c0-0.3,0.1-0.5,0.4-0.5h1.7c0.3,0,0.4,0.2,0.4,0.5v0.7c0,0,0,0,0,0h0&#xA;&#9;&#9;c0.2-0.2,0.5-0.3,0.8-0.5c0.3-0.2,0.6-0.3,1-0.5s0.7-0.2,1.1-0.3c0.4-0.1,0.7-0.1,1.1-0.1c0.8,0,1.4,0.1,1.9,0.4&#xA;&#9;&#9;c0.5,0.2,0.8,0.6,1,1c0.2,0.4,0.4,0.9,0.4,1.4c0.1,0.5,0.1,1.1,0.1,1.7L414.1,225.2L414.1,225.2z" class="st5"/>
	<path d="M423.7,224.8c0,0.3,0,0.5-0.3,0.6c-0.2,0.1-0.4,0.2-0.7,0.2c-0.3,0.1-0.5,0.1-0.8,0.1&#xA;&#9;&#9;c-0.3,0.1-0.5,0.1-0.8,0.1c-0.2,0-0.5,0-0.6,0c-0.7,0-1.2-0.1-1.6-0.3c-0.4-0.2-0.6-0.5-0.8-0.8s-0.3-0.8-0.4-1.2&#xA;&#9;&#9;c0-0.5-0.1-0.9-0.1-1.4v-5.9h-1.2c-0.2,0-0.3,0-0.4-0.1c-0.1-0.1-0.1-0.2-0.1-0.4v-1.2c0-0.2,0-0.3,0.1-0.4&#xA;&#9;&#9;c0.1-0.1,0.2-0.1,0.4-0.1h1.2v-2.4c0-0.2,0-0.3,0.1-0.4c0.1-0.1,0.2-0.1,0.3-0.2l1.6-0.4c0.3-0.1,0.5,0,0.5,0.3v3.1h2.5&#xA;&#9;&#9;c0.2,0,0.3,0,0.4,0.1c0.1,0.1,0.1,0.2,0.1,0.3v1.2c0,0.2,0,0.3-0.1,0.4c0,0.1-0.2,0.1-0.4,0.1H420v5.9c0,0.3,0,0.6,0.1,0.7&#xA;&#9;&#9;s0.1,0.3,0.2,0.4c0.1,0.1,0.3,0.1,0.5,0.1c0.2,0,0.5,0,0.8,0c0.2,0,0.4,0,0.7,0c0.3,0,0.6,0,0.8-0.1c0.1,0,0.2,0,0.3,0.1&#xA;&#9;&#9;s0.1,0.1,0.1,0.3L423.7,224.8L423.7,224.8z" class="st5"/>
	<path d="M428,211c0,0.2,0,0.4,0,0.5c0,0.2-0.1,0.3-0.2,0.4c-0.1,0.1-0.2,0.2-0.4,0.3c-0.2,0.1-0.4,0.1-0.7,0.1&#xA;&#9;&#9;c-0.3,0-0.6,0-0.8-0.1c-0.2-0.1-0.3-0.2-0.4-0.3c-0.1-0.1-0.2-0.3-0.2-0.4c0-0.2,0-0.4,0-0.5c0-0.4,0.1-0.7,0.3-0.9&#xA;&#9;&#9;c0.2-0.3,0.6-0.4,1.1-0.4s1,0.1,1.1,0.4C427.9,210.3,428,210.6,428,211L428,211z M427.8,225.2c0,0.1,0,0.2-0.1,0.3&#xA;&#9;&#9;c0,0.1-0.2,0.1-0.3,0.1h-1.7c-0.3,0-0.5-0.1-0.5-0.4v-10.7c0-0.3,0.2-0.4,0.5-0.4h1.7c0.2,0,0.3,0.1,0.3,0.1&#xA;&#9;&#9;c0.1,0.1,0.1,0.2,0.1,0.3V225.2z" class="st5"/>
	<path d="M437.9,224.8c0,0.3,0,0.5-0.3,0.6c-0.2,0.1-0.4,0.2-0.7,0.2c-0.3,0.1-0.5,0.1-0.8,0.1&#xA;&#9;&#9;c-0.3,0.1-0.5,0.1-0.8,0.1c-0.2,0-0.5,0-0.6,0c-0.7,0-1.2-0.1-1.6-0.3c-0.4-0.2-0.6-0.5-0.8-0.8s-0.3-0.8-0.4-1.2&#xA;&#9;&#9;c0-0.5-0.1-0.9-0.1-1.4v-5.9h-1.2c-0.2,0-0.3,0-0.4-0.1c-0.1-0.1-0.1-0.2-0.1-0.4v-1.2c0-0.2,0-0.3,0.1-0.4&#xA;&#9;&#9;c0.1-0.1,0.2-0.1,0.4-0.1h1.2v-2.4c0-0.2,0-0.3,0.1-0.4c0.1-0.1,0.2-0.1,0.3-0.2l1.6-0.4c0.3-0.1,0.5,0,0.5,0.3v3.1h2.5&#xA;&#9;&#9;c0.2,0,0.3,0,0.4,0.1c0.1,0.1,0.1,0.2,0.1,0.3v1.2c0,0.2,0,0.3-0.1,0.4c0,0.1-0.2,0.1-0.4,0.1h-2.5v5.9c0,0.3,0,0.6,0.1,0.7&#xA;&#9;&#9;c0,0.2,0.1,0.3,0.2,0.4c0.1,0.1,0.3,0.1,0.5,0.1c0.2,0,0.5,0,0.8,0c0.2,0,0.4,0,0.7,0c0.3,0,0.6,0,0.8-0.1c0.1,0,0.2,0,0.3,0.1&#xA;&#9;&#9;s0.1,0.1,0.1,0.3L437.9,224.8L437.9,224.8z" class="st5"/>
	<path d="M443.7,222.4c0.2-0.5,0.3-0.9,0.5-1.4c0.2-0.4,0.3-0.8,0.4-1.1c0.1-0.4,0.2-0.7,0.4-1l1.5-4.4&#xA;&#9;&#9;c0-0.1,0.1-0.2,0.2-0.3c0.1-0.1,0.2-0.1,0.4-0.1h1.7c0.2,0,0.3,0.1,0.3,0.1c0,0.1,0,0.2,0,0.3l-5.4,15.1c-0.1,0.2-0.1,0.3-0.2,0.3&#xA;&#9;&#9;s-0.2,0.1-0.4,0.1h-1.6c-0.2,0-0.3-0.1-0.3-0.1c0-0.1,0-0.2,0-0.3l1.5-4l-4.1-11c0-0.1-0.1-0.2,0-0.3c0-0.1,0.1-0.1,0.3-0.1h1.8&#xA;&#9;&#9;c0.2,0,0.3,0,0.3,0.1c0.1,0,0.1,0.1,0.2,0.3l1.5,4.4L443.7,222.4L443.7,222.4L443.7,222.4z" class="st5"/>
	<path d="M266,210.5c0-0.3,0.2-0.5,0.5-0.5h8.8c0.3,0,0.5,0.1,0.5,0.4v1.4c0,0.3-0.2,0.4-0.5,0.4h-6.5v4h5.8&#xA;&#9;&#9;c0.3,0,0.5,0.1,0.5,0.4v1.4c0,0.3-0.2,0.4-0.5,0.4h-5.8v4.6h6.7c0.3,0,0.4,0.1,0.4,0.4v1.4c0,0.3-0.1,0.4-0.5,0.4h-8.9&#xA;&#9;&#9;c-0.3,0-0.5-0.1-0.5-0.4L266,210.5L266,210.5z" class="st5"/>
	<path d="M284.4,223.4c1,0,1.9-0.3,2.4-0.8c0.6-0.6,0.8-1.5,0.8-2.7v-9.4c0-0.3,0.2-0.5,0.5-0.5h1.8&#xA;&#9;&#9;c0.2,0,0.3,0.1,0.3,0.1c0.1,0.1,0.1,0.2,0.1,0.3l0,9.4c0,0.5,0,0.9-0.1,1.4c0,0.4-0.2,0.9-0.3,1.4c-0.2,0.6-0.5,1-0.9,1.4&#xA;&#9;&#9;c-0.4,0.4-0.8,0.7-1.3,1c-0.5,0.2-1,0.4-1.5,0.5c-0.6,0.1-1.1,0.2-1.7,0.2c-2.5,0-4.2-0.9-5.2-2.6c-0.2-0.5-0.4-1-0.5-1.5&#xA;&#9;&#9;c-0.1-0.6-0.2-1.1-0.2-1.8v-9.4c0-0.3,0.1-0.5,0.5-0.5h1.8c0.3,0,0.5,0.2,0.5,0.5v9.4c0,1.1,0.3,2,0.8,2.6&#xA;&#9;&#9;C282.6,223.1,283.4,223.4,284.4,223.4L284.4,223.4z" class="st5"/>
	<path d="M292.8,261.4l-1.4,4.7l-4.9,16.4c-0.1,0.5-0.3,0.9-0.6,1.1c-0.2,0.2-0.6,0.3-1.3,0.3h-4.8&#xA;&#9;&#9;c-0.6,0-1.1-0.1-1.3-0.3c-0.3-0.2-0.4-0.6-0.5-1l-11.9-41.6c-0.2-0.9,0.1-1.3,0.9-1.3h5.3c0.5,0,0.9,0.1,1.1,0.3&#xA;&#9;&#9;c0.3,0.2,0.5,0.5,0.6,1c1.1,4.1,2.1,7.7,3.1,11.1c0.4,1.4,0.8,2.9,1.1,4.3c0.4,1.4,0.8,2.6,1.1,3.8c0.4,1.2,0.6,2.2,0.9,3&#xA;&#9;&#9;c0.2,0.9,0.4,1.4,0.5,1.7l2.1,8.3h0.2l1.9-6.9c0-0.2,0.2-0.7,0.4-1.5c0.2-0.9,0.5-1.8,0.8-2.9c0.4-1.2,0.7-2.4,1.1-3.7&#xA;&#9;&#9;c0.4-1.3,0.8-2.5,1.1-3.7c0.4-1.2,0.6-2.1,0.9-2.9c0.2-0.9,0.4-1.4,0.5-1.6l-2.7-9c-0.1-0.4-0.1-0.7,0-0.9c0.1-0.3,0.4-0.4,0.7-0.4&#xA;&#9;&#9;h5c1,0,1.6,0.4,1.9,1.3c1.2,4.1,2.3,7.9,3.2,11.4c0.4,1.5,0.8,2.9,1.2,4.3c0.4,1.4,0.8,2.7,1.1,3.9c0.4,1.2,0.6,2.2,0.9,3.1&#xA;&#9;&#9;c0.2,0.9,0.4,1.4,0.5,1.7l2,7.7h0.3l1.9-7.9c0.1-0.3,0.2-0.8,0.5-1.7c0.2-0.9,0.5-1.9,0.8-3.1s0.6-2.5,1-3.9&#xA;&#9;&#9;c0.4-1.4,0.8-2.9,1.2-4.3c0.9-3.4,1.9-7.1,3-11.2c0.2-0.9,0.8-1.3,1.9-1.3h5.1c0.8,0,1,0.5,0.7,1.5l-11.5,41.4&#xA;&#9;&#9;c-0.1,0.5-0.4,0.9-0.7,1.1c-0.3,0.2-0.7,0.3-1.3,0.3h-4.6c-0.7,0-1.2-0.1-1.5-0.3c-0.2-0.3-0.4-0.6-0.5-1.1l-4.9-16.5l-1.3-4.7&#xA;&#9;&#9;L292.8,261.4L292.8,261.4z" class="st5"/>
	<path d="M342.7,269h-8.1c-1.7,0-3,0.4-4,1.2c-1,0.8-1.5,2.2-1.5,4.4c0,1.5,0.3,2.5,0.9,3.1c0.6,0.5,1.7,0.8,3.3,0.8&#xA;&#9;&#9;c0.7,0,1.5-0.1,2.3-0.3s1.7-0.4,2.5-0.7s1.7-0.6,2.5-1c0.8-0.4,1.5-0.8,2.1-1.1L342.7,269L342.7,269z M343.1,280.1&#xA;&#9;&#9;c-1.7,1.3-3.6,2.3-5.7,3.1c-2.1,0.8-4.3,1.2-6.5,1.2c-1.8,0-3.3-0.2-4.5-0.7c-1.1-0.5-2.1-1.1-2.8-1.9c-0.7-0.9-1.1-1.9-1.5-3&#xA;&#9;&#9;c-0.3-1.2-0.4-2.5-0.4-3.9c0-3.9,1-6.7,3.1-8.5c2.1-1.8,5.2-2.7,9.5-2.7h8.5v-1.7c0-1-0.1-1.8-0.3-2.5c-0.2-0.7-0.5-1.3-1.1-1.7&#xA;&#9;&#9;c-0.5-0.5-1.2-0.8-2.1-0.9s-2-0.3-3.4-0.3c-0.5,0-1.2,0-2,0.1c-0.8,0-1.5,0.1-2.4,0.1c-0.8,0-1.6,0.1-2.5,0.2&#xA;&#9;&#9;c-0.8,0.1-1.5,0.2-2.2,0.2c-0.7,0.1-1.1,0.1-1.4,0.1c-0.2-0.1-0.4-0.4-0.5-0.9l-0.6-2.5c-0.1-0.4,0-0.8,0.1-1.1&#xA;&#9;&#9;c0.2-0.3,0.6-0.6,1.4-0.9c0.7-0.3,1.5-0.5,2.5-0.7s2-0.3,3-0.4c1-0.1,2-0.2,3-0.3c1-0.1,1.9-0.1,2.7-0.1c2.9,0,5.2,0.3,6.9,0.9&#xA;&#9;&#9;c1.7,0.6,3,1.4,3.9,2.5c0.9,1,1.5,2.3,1.7,3.8c0.3,1.5,0.4,3.2,0.4,5.1v12.9c0,0.7,0,1.2,0.1,1.6c0.1,0.4,0.2,0.6,0.3,0.9&#xA;&#9;&#9;c0.2,0.2,0.4,0.3,0.7,0.4s0.7,0.2,1.3,0.2c0.5,0,0.8,0.1,1,0.3c0.2,0.1,0.3,0.4,0.3,0.7v2.8c0,0.8-0.5,1.2-1.6,1.4&#xA;&#9;&#9;c-0.5,0.1-1.1,0.2-1.6,0.2c-0.5,0.1-1,0.1-1.5,0.1c-1.5,0-2.8-0.3-3.8-0.9c-0.9-0.6-1.6-1.6-1.9-3.2L343.1,280.1L343.1,280.1z" class="st5"/>
	<path d="M366.6,275.6c0,1,0.2,1.7,0.7,1.9c0.5,0.2,1.3,0.3,2.5,0.3c0.5,0,0.8,0.1,0.9,0.2c0.2,0.1,0.3,0.3,0.4,0.7&#xA;&#9;&#9;l0.3,3.4c0,0.5-0.2,1-0.9,1.3c-0.6,0.3-1.4,0.5-2.2,0.6c-0.8,0.1-1.6,0.2-2.1,0.2c-2.5,0-4.3-0.6-5.3-1.7c-1-1.2-1.5-2.9-1.5-5.1&#xA;&#9;&#9;v-39.3c0-0.9,0.4-1.3,1.3-1.3h4.7c0.8,0,1.3,0.4,1.3,1.3L366.6,275.6L366.6,275.6z" class="st5"/>
	<path d="M384.2,275.6c0,1,0.2,1.7,0.7,1.9c0.5,0.2,1.3,0.3,2.5,0.3c0.5,0,0.8,0.1,0.9,0.2c0.2,0.1,0.3,0.3,0.4,0.7&#xA;&#9;&#9;l0.3,3.4c0,0.5-0.2,1-0.9,1.3c-0.6,0.3-1.4,0.5-2.2,0.6c-0.8,0.1-1.6,0.2-2.1,0.2c-2.5,0-4.3-0.6-5.3-1.7c-1-1.2-1.5-2.9-1.5-5.1&#xA;&#9;&#9;v-39.3c0-0.9,0.4-1.3,1.3-1.3h4.7c0.8,0,1.3,0.4,1.3,1.3L384.2,275.6L384.2,275.6z" class="st5"/>
	<path d="M400.7,269.6c0,1.7,0.2,3.1,0.5,4.2c0.4,1.1,0.9,2,1.5,2.7c0.7,0.6,1.5,1.1,2.5,1.3c1,0.3,2.1,0.4,3.5,0.4&#xA;&#9;&#9;c1.2,0,2.6-0.1,4.3-0.3s3.1-0.3,4.4-0.5c0.6-0.1,1-0.1,1.3,0.1c0.3,0.1,0.4,0.4,0.5,1.1l0.4,2.2c0.1,0.5,0.1,0.9-0.1,1.2&#xA;&#9;&#9;c-0.1,0.3-0.4,0.6-1.1,0.9c-0.7,0.3-1.4,0.5-2.3,0.7c-0.9,0.2-1.8,0.3-2.8,0.5c-1,0.1-2,0.2-2.9,0.3c-1,0.1-1.9,0.1-2.7,0.1&#xA;&#9;&#9;c-3.2,0-5.8-0.5-7.7-1.4s-3.4-2.2-4.4-3.7s-1.7-3.3-2.1-5.3c-0.3-2-0.5-4.2-0.5-6.3c0-1.6,0.1-3.4,0.4-5.4c0.3-2,0.9-3.9,1.8-5.6&#xA;&#9;&#9;c1-1.7,2.4-3.2,4.3-4.3c1.9-1.2,4.5-1.8,7.7-1.8c3,0,5.4,0.4,7.2,1.3c1.9,0.9,3.3,2.1,4.3,3.5c1,1.4,1.7,3,2.1,4.8&#xA;&#9;&#9;c0.4,1.8,0.6,3.6,0.7,5.3c0,1.2-0.2,2.2-0.6,2.9s-1.3,1.1-2.7,1.1L400.7,269.6L400.7,269.6z M407.3,256.6c-1.2,0-2.3,0.2-3.1,0.5&#xA;&#9;&#9;c-0.8,0.4-1.5,0.9-2,1.6c-0.5,0.7-0.8,1.5-1.1,2.5c-0.2,1-0.4,2.1-0.5,3.3h13.2c0-1-0.1-2-0.3-2.9c-0.2-1-0.5-1.9-1-2.6&#xA;&#9;&#9;c-0.4-0.8-1.1-1.4-2-1.8C409.8,256.8,408.7,256.6,407.3,256.6L407.3,256.6z" class="st5"/>
	<path d="M448,281.4c0.1,0.8-0.2,1.3-0.9,1.7c-0.6,0.3-1.3,0.5-2.1,0.7c-0.8,0.2-1.6,0.3-2.4,0.4&#xA;&#9;&#9;c-0.8,0.1-1.6,0.2-2.3,0.3c-0.7,0-1.3,0.1-1.9,0.1c-2,0-3.5-0.3-4.6-0.8c-1.1-0.6-1.9-1.4-2.4-2.3s-0.9-2.1-1-3.4s-0.2-2.6-0.2-4.1&#xA;&#9;&#9;v-16.8h-3.3c-0.5,0-0.8-0.1-1-0.3c-0.2-0.2-0.3-0.6-0.3-1v-3.3c0-0.4,0.1-0.8,0.3-1s0.5-0.3,1-0.3h3.4v-6.9c0-0.5,0.1-0.8,0.3-1&#xA;&#9;&#9;c0.3-0.2,0.6-0.4,0.9-0.5l4.5-1.2c0.9-0.2,1.3,0,1.3,0.8v8.7h7.1c0.5,0,0.9,0.1,1,0.3c0.2,0.2,0.3,0.5,0.3,0.9v3.3&#xA;&#9;&#9;c0,0.5-0.1,0.8-0.3,1c-0.1,0.2-0.5,0.3-1,0.3h-7.1v16.6c0,0.9,0.1,1.6,0.2,2.1c0.1,0.5,0.4,0.9,0.7,1.1c0.4,0.2,0.8,0.4,1.4,0.4&#xA;&#9;&#9;s1.3,0.1,2.2,0.1c0.5,0,1.2,0,2.1-0.1c0.9,0,1.7-0.1,2.4-0.2c0.4,0,0.6,0,0.8,0.1s0.3,0.4,0.4,0.8L448,281.4L448,281.4z" class="st5"/>
</g>
</svg>